<?xml version="1.0" encoding="UTF-8" standalone="no"?>
<!DOCTYPE svg PUBLIC "-//W3C//DTD SVG 1.1//EN" "http://www.w3.org/Graphics/SVG/1.1/DTD/svg11.dtd">
<svg version="1.1" xmlns="http://www.w3.org/2000/svg" xmlns:xlink="http://www.w3.org/1999/xlink" preserveAspectRatio="xMidYMid meet" viewBox="0 0 640 640" width="640" height="640"><defs><path d="M66.14 14.6C58.15 24.18 54.12 36.46 54.87 48.91C54.87 103.13 54.87 536.87 54.87 591.09C54.12 603.54 58.15 615.82 66.14 625.4C66.26 625.52 66.83 626.09 67.86 627.12L371.55 323.68L371.55 316.57L67.86 12.88C66.94 13.8 66.37 14.37 66.14 14.6Z" id="a1mB8ki1T3"></path><linearGradient id="gradientbgSvkcK2h" gradientUnits="userSpaceOnUse" x1="344.58" y1="43.27" x2="-66.7" y2="454.56"><stop style="stop-color: #00a0ff;stop-opacity: 1" offset="0%"></stop><stop style="stop-color: #00a1ff;stop-opacity: 1" offset="1%"></stop><stop style="stop-color: #00beff;stop-opacity: 1" offset="26%"></stop><stop style="stop-color: #00d2ff;stop-opacity: 1" offset="51%"></stop><stop style="stop-color: #00dfff;stop-opacity: 1" offset="76%"></stop><stop style="stop-color: #00e3ff;stop-opacity: 1" offset="100%"></stop></linearGradient><path d="M474.74 423.43L371.3 320C188.06 503.24 86.26 605.04 65.9 625.4C80.33 638.09 101.74 638.71 116.88 626.87C140.75 613.31 260.12 545.5 474.98 423.43" id="aANdcUIa"></path><linearGradient id="gradienth7U5H8WW" gradientUnits="userSpaceOnUse" x1="418.61" y1="376.37" x2="-139.26" y2="933.99"><stop style="stop-color: #ff3a44;stop-opacity: 1" offset="0%"></stop><stop style="stop-color: #c31162;stop-opacity: 1" offset="100%"></stop></linearGradient><path d="M474.98 216.57C260.12 94.5 140.75 26.69 116.88 13.13C101.74 1.29 80.33 1.91 65.9 14.6C86.27 34.96 188.16 136.76 371.55 320L474.98 216.57Z" id="a4ZWzdPNR"></path><linearGradient id="gradientb2ZlG3WiDO" gradientUnits="userSpaceOnUse" x1="-10.82" y1="-165.8" x2="238.21" y2="83.23"><stop style="stop-color: #32a071;stop-opacity: 1" offset="0%"></stop><stop style="stop-color: #2da771;stop-opacity: 1" offset="7.000000000000001%"></stop><stop style="stop-color: #15cf74;stop-opacity: 1" offset="48%"></stop><stop style="stop-color: #06e775;stop-opacity: 1" offset="80%"></stop><stop style="stop-color: #00f076;stop-opacity: 1" offset="100%"></stop></linearGradient><path d="M472.04 424.91L371.55 323.68L371.55 316.57L472.04 215.09L474.25 216.32C546.45 257.35 586.57 280.15 594.59 284.7C628.91 304.07 628.91 335.93 594.59 355.54C586.6 360.08 546.65 382.8 474.74 423.68L472.04 424.91Z" id="d2eydNqZ0"></path><linearGradient id="gradientd8l8vqDVA" gradientUnits="userSpaceOnUse" x1="639.45" y1="320" x2="46.53" y2="320"><stop style="stop-color: #ffe000;stop-opacity: 1" offset="0%"></stop><stop style="stop-color: #ffbd00;stop-opacity: 1" offset="41%"></stop><stop style="stop-color: #ffa500;stop-opacity: 1" offset="78%"></stop><stop style="stop-color: #ff9c00;stop-opacity: 1" offset="100%"></stop></linearGradient></defs><g><g><g><use xlink:href="#a1mB8ki1T3" opacity="1" fill="url(#gradientbgSvkcK2h)"></use><g><use xlink:href="#a1mB8ki1T3" opacity="1" fill-opacity="0" stroke="#000000" stroke-width="1" stroke-opacity="0"></use></g></g><g><use xlink:href="#aANdcUIa" opacity="1" fill="url(#gradienth7U5H8WW)"></use><g><use xlink:href="#aANdcUIa" opacity="1" fill-opacity="0" stroke="#000000" stroke-width="1" stroke-opacity="0"></use></g></g><g><use xlink:href="#a4ZWzdPNR" opacity="1" fill="url(#gradientb2ZlG3WiDO)"></use><g><use xlink:href="#a4ZWzdPNR" opacity="1" fill-opacity="0" stroke="#000000" stroke-width="1" stroke-opacity="0"></use></g></g><g><use xlink:href="#d2eydNqZ0" opacity="1" fill="url(#gradientd8l8vqDVA)"></use><g><use xlink:href="#d2eydNqZ0" opacity="1" fill-opacity="0" stroke="#000000" stroke-width="1" stroke-opacity="0"></use></g></g></g></g></svg>